<?xml version="1.0" encoding="iso-8859-1"?>
<!-- Generator: Adobe Illustrator 30.7.0, SVG Export Plug-In . SVG Version: 9.03 Build 0)  -->
<svg version="1.1" id="Warstwa_1" xmlns="http://www.w3.org/2000/svg" xmlns:xlink="http://www.w3.org/1999/xlink" x="0px" y="0px"
	 viewBox="0 0 807.574 435.83" style="enable-background:new 0 0 807.574 435.83;" xml:space="preserve">
<g>
	<g>
		<g>
			<g>
				<path style="fill-rule:evenodd;clip-rule:evenodd;" d="M402.516,139.963c5.741,0.011,11.348,0.022,17.308,0.033
					c0.134,1.48,0.27,3.019,0.452,5.087c6.284-5.149,14.15-6.964,22.024-5.606c7.737,1.335,13.909,4.857,18.484,11.242
					c9.12,12.722,8.092,33.538-2.208,44.077c-9.42,9.632-25.76,10.711-38.416,2.128c-0.015,7.831-0.029,15.25-0.044,22.91
					c-6.26-0.012-11.833-0.023-17.751-0.034C402.414,193.126,402.465,166.684,402.516,139.963z M448.988,171.394
					c0.141-8.311-6.088-15.114-13.814-15.085c-7.485,0.029-14.898,6.591-15.125,14.438c-0.253,8.309,7.205,15.516,14.963,15.556
					C442.861,186.342,448.844,179.964,448.988,171.394z"/>
				<path style="fill-rule:evenodd;clip-rule:evenodd;" d="M686.825,140.374c5.976,0.011,11.444,0.022,17.276,0.033
					c0.143,1.596,0.274,3.133,0.454,5.214c6.297-5.124,13.18-6.95,21.042-5.61c7.933,1.358,14.184,5.035,18.781,11.621
					c8.822,12.647,7.61,33.246-2.448,43.707c-7.082,7.378-25.003,12.632-37.453,2c-0.015,7.945-0.029,15.361-0.044,23.028
					c-6.258-0.012-11.842-0.023-17.761-0.034C686.723,193.681,686.773,167.244,686.825,140.374z M732.309,171.991
					c0.177-8.306-6.022-15.129-13.762-15.137c-7.492-0.007-13.951,6.525-14.205,14.383c-0.276,8.304,6.178,15.532,13.931,15.604
					C726.146,186.915,732.12,180.589,732.309,171.991z"/>
				<path style="fill-rule:evenodd;clip-rule:evenodd;" d="M638.204,145.526c0.097-1.928,0.173-3.376,0.26-5.105
					c5.821,0.011,11.573,0.022,17.692,0.034c-0.039,20.349-0.078,40.768-0.117,61.52c-5.78-0.011-11.514-0.022-17.576-0.034
					c-0.132-1.423-0.277-2.955-0.473-5.039c-6.964,6.185-14.765,7.309-23.23,5.324c-6.175-1.451-11.392-4.518-15.291-9.526
					c-10.053-12.911-9.482-34.137,1.12-45.256C610.09,137.477,625.733,136.565,638.204,145.526z M638.256,170.917
					c0.05-8.122-6.307-15.043-13.919-15.165c-7.799-0.122-14.099,6.563-14.017,14.875c0.079,8.651,5.89,15.013,13.782,15.089
					C631.858,185.79,638.211,179.151,638.256,170.917z"/>
				<path style="fill-rule:evenodd;clip-rule:evenodd;" d="M534.066,140.221c0,0-0.07,41.538-0.108,61.461
					c-6.023-0.012-11.746-0.022-17.902-0.034c-0.148-1.28-0.322-2.798-0.56-4.891c-7.306,6.508-15.649,7.359-24.438,4.932
					c-6.241-1.717-11.331-5.246-15.077-10.676c-9.144-13.262-7.893-34.127,2.751-44.39c9.939-9.585,25.233-10.239,36.903-1.275
					c0.163-1.727,0.293-3.3,0.461-5.162C521.891,140.198,534.066,140.221,534.066,140.221z M515.814,170.843
					c0.109-8.149-6.106-15.068-13.757-15.312c-7.808-0.252-14.139,6.317-14.171,14.706c-0.035,8.619,5.721,15.063,13.618,15.242
					C509.257,185.648,515.707,179.063,515.814,170.843z"/>
				<path style="fill-rule:evenodd;clip-rule:evenodd;" d="M560.501,163.184l15.719-22.882l20.469,0.039l-21.28,31.03l23.348,30.435
					l-21.512-0.041c0,0-11.721-15.693-17.536-23.622c-0.017,8.689-0.03,15.958-0.045,23.588c-6.256-0.012-11.842-0.023-17.765-0.034
					c0.051-26.641,0.101-52.941,0.152-79.697c5.768,0.011,11.359,0.022,17.353,0.033c-0.026,13.668-0.079,41.149-0.079,41.149
					L560.501,163.184z"/>
				<path style="fill-rule:evenodd;clip-rule:evenodd;" d="M774.691,202.142c-5.93-0.011-11.685-0.022-17.733-0.034
					c0.051-26.602,0.101-52.893,0.152-79.672c5.835,0.011,11.592,0.022,17.733,0.034
					C774.793,148.835,774.742,175.116,774.691,202.142z"/>
				<path style="fill-rule:evenodd;clip-rule:evenodd;" d="M670.587,202.514c-5.875,0.034-10.44-4.55-10.356-10.407
					c0.072-5.584,4.727-10.044,10.356-9.926c5.889,0.125,10.356,4.381,10.405,9.902C681.035,197.872,676.442,202.48,670.587,202.514
					z"/>
				<path d="M397.257,178.079c4.701-36.915-34.746-49.481-54.466-30.713c-18.14,17.266-7.985,52.268,18.55,55.036
					c14.792,1.544,29.086-4.602,34.474-20.021c-1.58-0.003-20.135-0.038-20.135-0.038s-3.949,4.22-10.059,4.208
					c-5.946-0.134-11.277-3.614-12.365-8.556c4.132,0.008,8.252,0.016,12.381,0.024C376.18,178.038,386.722,178.058,397.257,178.079
					z M353.281,163.726c0,0,0.109-0.086,0.003-0.082c0.878-5.799,6.616-8.715,12.376-8.752c5.693-0.039,11.411,2.735,12.491,8.326
					c0.041,0.118,0.065,0.556,0.065,0.556l-12.573-0.024L353.281,163.726z"/>
			</g>
		</g>
	</g>
	<g>
		<linearGradient id="SVGID_1_" gradientUnits="userSpaceOnUse" x1="368.1389" y1="345.1563" x2="441.4425" y2="345.1563">
			<stop  offset="0.0149" style="stop-color:#E74E0F"/>
			<stop  offset="0.2525" style="stop-color:#E20613"/>
			<stop  offset="1" style="stop-color:#B60E0C"/>
		</linearGradient>
		<path style="fill:url(#SVGID_1_);" d="M404.791,289.409c-20.242,0-36.652,16.409-36.652,36.652
			c0,16.706,24.966,58.939,33.688,73.183c1.355,2.213,4.573,2.213,5.928,0c8.722-14.244,33.688-56.477,33.688-73.183
			C441.443,305.818,425.033,289.409,404.791,289.409z M419.648,328.554c-0.692,6.988-6.345,12.641-13.333,13.333
			c-9.444,0.935-17.316-6.937-16.38-16.381c0.692-6.988,6.345-12.641,13.334-13.333C412.711,311.238,420.583,319.11,419.648,328.554
			z"/>
		<path d="M80.001,321.6c0,0,0,0,0-0.003c-4.549-2.92-9.847-4.403-15.746-4.403c-5.815,0-10.882,1.358-15.062,4.032
			c-2.031,1.301-3.807,2.882-5.315,4.731l-0.402-5.113c-0.095-1.219-1.114-2.162-2.339-2.162h-4.97
			c-0.676,0-1.319,0.292-1.765,0.802c-0.446,0.507-0.651,1.183-0.561,1.855c0.646,4.852,0.973,10.508,0.973,16.815v71.715
			c0,1.296,1.05,2.346,2.346,2.346h5.095c1.296,0,2.346-1.05,2.346-2.346v-31.5c1.383,1.557,2.964,2.9,4.729,4.017
			c4.091,2.587,9.112,3.899,14.924,3.899c5.892,0,11.205-1.458,15.787-4.329c4.588-2.872,8.164-6.96,10.631-12.147
			c2.418-5.095,3.645-11.112,3.645-17.883c0-6.765-1.248-12.824-3.709-18.006C88.108,328.663,84.54,324.518,80.001,321.6z
			 M78.658,370.292v0.003c-3.415,4.178-8.125,6.209-14.404,6.209c-6.35,0-11.056-2.024-14.389-6.191
			c-3.41-4.263-5.139-10.533-5.139-18.636c0-8.095,1.727-14.34,5.134-18.564c3.333-4.129,8.082-6.138,14.517-6.138
			c6.184,0,10.851,2.067,14.268,6.317c3.492,4.352,5.262,10.621,5.262,18.633C83.907,359.85,82.142,366.032,78.658,370.292z"/>
		<path d="M157.469,318.683h-5.098c-1.296,0-2.346,1.05-2.346,2.346v35.363c0,6.209-1.716,11.015-5.246,14.691
			c-3.509,3.648-8.097,5.42-14.033,5.42c-4.885,0-8.351-1.258-10.595-3.842c-2.3-2.651-3.466-6.996-3.466-12.918v-38.714
			c0-1.296-1.05-2.346-2.346-2.346h-5.095c-1.296,0-2.346,1.05-2.346,2.346v39.211c0,8.351,2.093,14.837,6.222,19.276
			c4.173,4.491,10.229,6.768,18.001,6.768c5.121,0,9.803-1.214,13.917-3.607c1.906-1.107,3.612-2.439,5.113-3.983v4.375
			c0,1.296,1.05,2.346,2.346,2.346h4.972c1.296,0,2.346-1.05,2.346-2.346v-62.04C159.816,319.733,158.766,318.683,157.469,318.683z"
			/>
		<path d="M206.063,317.194c-5.454,0-10.367,1.255-14.606,3.732c-2.095,1.227-3.919,2.723-5.461,4.483l-0.338-4.552
			c-0.09-1.227-1.109-2.175-2.339-2.175h-4.97c-0.676,0-1.319,0.292-1.765,0.802c-0.446,0.507-0.651,1.183-0.561,1.855
			c0.646,4.852,0.973,10.508,0.973,16.815v44.916c0,1.296,1.05,2.346,2.346,2.346h5.095c1.296,0,2.346-1.05,2.346-2.346v-36.106
			c0-6.279,1.75-11.097,5.346-14.727c3.594-3.625,8.315-5.385,14.43-5.385c5.151,0,8.886,1.276,11.102,3.794
			c2.293,2.605,3.456,6.97,3.456,12.967v39.457c0,1.296,1.05,2.346,2.346,2.346h5.221c1.296,0,2.346-1.05,2.346-2.346v-39.954
			C231.032,326.157,222.396,317.194,206.063,317.194z"/>
		<path d="M335.946,318.683H319.4v-16.761c0-0.789-0.397-1.524-1.055-1.957c-0.658-0.438-1.491-0.507-2.213-0.2l-5.221,2.234
			c-0.863,0.369-1.424,1.217-1.424,2.157v14.527h-14.058h-2.18h-5.154c-0.574,0-1.13,0.21-1.557,0.592l-28.908,25.691v-53.218
			c0-1.296-1.05-2.346-2.346-2.346h-5.095c-1.296,0-2.346,1.05-2.346,2.346v91.322c0,1.296,1.05,2.346,2.346,2.346h5.095
			c1.296,0,2.346-1.05,2.346-2.346v-25.706l32.43,27.497c0.423,0.359,0.961,0.556,1.516,0.556h7.705c0.984,0,1.86-0.612,2.2-1.534
			s0.069-1.957-0.676-2.595l-35.724-30.504l26.139-22.939h18.267v38.973c0,6.435,1.734,11.33,5.151,14.547
			c3.374,3.184,7.908,4.798,13.477,4.798c2.672,0,5.385-0.361,8.059-1.073c1.03-0.274,1.744-1.204,1.744-2.267v-5.087
			c0-0.758-0.366-1.47-0.986-1.911c-0.62-0.441-1.417-0.553-2.126-0.305c-1.896,0.653-3.978,0.986-6.194,0.986
			c-3.151,0-5.5-0.751-6.98-2.229c-1.02-1.017-2.231-3.435-2.231-9.196v-37.236h16.546c1.296,0,2.346-1.05,2.346-2.346v-4.467
			C338.292,319.733,337.242,318.683,335.946,318.683z M297.184,319.536c0.185,0.098,0.305,0.2,0.24,0.31
			C297.356,319.732,297.268,319.637,297.184,319.536z"/>
		<path d="M516.745,321.6c0,0,0,0,0-0.003c-4.549-2.92-9.847-4.403-15.746-4.403c-5.815,0-10.882,1.358-15.062,4.032
			c-2.031,1.301-3.807,2.882-5.315,4.731l-0.402-5.113c-0.095-1.219-1.114-2.162-2.339-2.162h-4.97
			c-0.676,0-1.319,0.292-1.765,0.802c-0.446,0.507-0.651,1.183-0.561,1.855c0.646,4.852,0.973,10.508,0.973,16.815v71.715
			c0,1.296,1.05,2.346,2.346,2.346H479c1.296,0,2.346-1.05,2.346-2.346v-31.5c1.383,1.557,2.964,2.9,4.729,4.017
			c4.091,2.587,9.112,3.899,14.924,3.899c5.892,0,11.205-1.458,15.787-4.329c4.588-2.872,8.164-6.96,10.631-12.147
			c2.418-5.095,3.645-11.112,3.645-17.883c0-6.765-1.247-12.824-3.709-18.006C524.853,328.663,521.285,324.518,516.745,321.6z
			 M515.403,370.292v0.003c-3.415,4.178-8.125,6.209-14.404,6.209c-6.35,0-11.056-2.024-14.389-6.191
			c-3.41-4.263-5.139-10.533-5.139-18.636c0-8.095,1.727-14.34,5.133-18.564c3.333-4.129,8.082-6.138,14.517-6.138
			c6.184,0,10.851,2.067,14.268,6.317c3.492,4.352,5.262,10.621,5.262,18.633C520.652,359.85,518.887,366.032,515.403,370.292z"/>
		<path d="M594.217,318.683h-5.098c-1.296,0-2.346,1.05-2.346,2.346v35.363c0,6.209-1.716,11.015-5.246,14.691
			c-3.509,3.648-8.097,5.42-14.033,5.42c-4.885,0-8.351-1.258-10.595-3.842c-2.3-2.651-3.466-6.996-3.466-12.918v-38.714
			c0-1.296-1.05-2.346-2.346-2.346h-5.095c-1.296,0-2.346,1.05-2.346,2.346v39.211c0,8.351,2.093,14.837,6.222,19.276
			c4.173,4.491,10.229,6.768,18.001,6.768c5.121,0,9.803-1.214,13.917-3.607c1.906-1.107,3.612-2.439,5.113-3.983v4.375
			c0,1.296,1.05,2.346,2.346,2.346h4.972c1.296,0,2.346-1.05,2.346-2.346v-62.04C596.563,319.733,595.513,318.683,594.217,318.683z"
			/>
		<path d="M642.811,317.194c-5.454,0-10.367,1.255-14.606,3.732c-2.095,1.227-3.919,2.723-5.461,4.483l-0.338-4.552
			c-0.09-1.227-1.109-2.175-2.339-2.175h-4.97c-0.676,0-1.319,0.292-1.765,0.802c-0.446,0.507-0.651,1.183-0.561,1.855
			c0.646,4.852,0.973,10.508,0.973,16.815v44.916c0,1.296,1.05,2.346,2.346,2.346h5.095c1.296,0,2.346-1.05,2.346-2.346v-36.106
			c0-6.279,1.75-11.097,5.346-14.727c3.594-3.625,8.315-5.385,14.43-5.385c5.151,0,8.886,1.276,11.102,3.794
			c2.293,2.605,3.456,6.97,3.456,12.967v39.457c0,1.296,1.05,2.346,2.346,2.346h5.221c1.296,0,2.346-1.05,2.346-2.346v-39.954
			C667.779,326.157,659.144,317.194,642.811,317.194z"/>
		<path d="M772.693,327.843c1.296,0,2.346-1.05,2.346-2.346v-4.467c0-1.296-1.05-2.346-2.346-2.346h-16.546v-16.761
			c0-0.789-0.397-1.524-1.055-1.957c-0.658-0.438-1.491-0.507-2.213-0.2l-5.221,2.234c-0.863,0.369-1.424,1.217-1.424,2.157v14.527
			h-14.058h-1.566h-5.768c-0.574,0-1.13,0.21-1.557,0.592l-28.908,25.691v-53.218c0-1.296-1.05-2.346-2.346-2.346h-5.095
			c-1.296,0-2.346,1.05-2.346,2.346v91.322c0,1.296,1.05,2.346,2.346,2.346h5.095c1.296,0,2.346-1.05,2.346-2.346v-25.706
			l32.43,27.497c0.423,0.359,0.961,0.556,1.516,0.556h7.705c0.984,0,1.86-0.612,2.2-1.534s0.069-1.957-0.676-2.595l-35.724-30.504
			l26.139-22.939h18.267v38.973c0,6.435,1.734,11.33,5.151,14.547c3.374,3.184,7.908,4.798,13.477,4.798
			c2.672,0,5.385-0.361,8.059-1.073c1.03-0.274,1.744-1.204,1.744-2.267v-5.087c0-0.758-0.366-1.47-0.986-1.911
			c-0.62-0.441-1.414-0.553-2.126-0.305c-1.896,0.653-3.978,0.986-6.194,0.986c-3.151,0-5.5-0.751-6.98-2.229
			c-1.02-1.017-2.231-3.435-2.231-9.196v-37.236H772.693z M733.901,319.496c0.208,0.11,0.345,0.225,0.27,0.35
			C734.095,319.717,733.997,319.607,733.901,319.496z"/>
	</g>
	<g>
		<g>
			
				<linearGradient id="SVGID_00000172412720517553093330000014872974362243959949_" gradientUnits="userSpaceOnUse" x1="241.4299" y1="220.1728" x2="242.0652" y2="220.1728">
				<stop  offset="0.0149" style="stop-color:#F19A00"/>
				<stop  offset="0.2525" style="stop-color:#E8620B"/>
				<stop  offset="1" style="stop-color:#E52C27"/>
			</linearGradient>
			<path style="fill:url(#SVGID_00000172412720517553093330000014872974362243959949_);" d="M241.702,222.4
				c0.093,0.378,0.234,0.725,0.363,1.084c-0.025-2.21-0.052-4.416-0.081-6.622C241.387,218.588,241.24,220.491,241.702,222.4z"/>
			
				<linearGradient id="SVGID_00000063593875735797147630000001772924505725430187_" gradientUnits="userSpaceOnUse" x1="59.7676" y1="230.5504" x2="61.5777" y2="230.5504">
				<stop  offset="0.0149" style="stop-color:#F19A00"/>
				<stop  offset="0.2525" style="stop-color:#E8620B"/>
				<stop  offset="1" style="stop-color:#E52C27"/>
			</linearGradient>
			<path style="fill:url(#SVGID_00000063593875735797147630000001772924505725430187_);" d="M61.578,231.317
				c-0.566-0.75-1.188-1.234-1.81-1.533C60.316,230.366,60.915,230.891,61.578,231.317z"/>
			<path d="M286.463,132.478L253.887,23.615L59.768,54.683l-23.329,78.329l20.848,92.264c7.381,25.576,53.022,1.097,58.781-8.329
				c-2.602-10.145-37.554-146.445-37.554-146.445l161.285-24.797l46.694,155.713l-33.87,8.313l-0.255,21.797v5.893
				c-0.066,0.713-0.174,1.415-0.284,2.117c-0.771,4.929-2.306,9.164-6.4,12.004c-1.547,1.294-3.249,2.299-5.082,3.012
				c-4.323,1.676-9.374,1.097-13.317-1.674c-5.432-3.961-12.745-9.316-12.745-9.316s-22.108,22.442-49.333,31.107
				c-2.173,0.694-3.653,2.871-3.653,5.292c0,3.13,2.542,5.671,5.677,5.671c0.222,0,0.433-0.015,0.651-0.04l0.008,0.04l81.14-18.441
				l61.06-55.414C310.172,211.705,286.463,132.478,286.463,132.478z"/>
			
				<linearGradient id="SVGID_00000104670011059075233090000016215244336025804197_" gradientUnits="userSpaceOnUse" x1="261.3344" y1="114.6696" x2="87.9243" y2="277.5411">
				<stop  offset="0.0149" style="stop-color:#E74E0F"/>
				<stop  offset="0.2525" style="stop-color:#E20613"/>
				<stop  offset="1" style="stop-color:#B60E0C"/>
			</linearGradient>
			<path style="fill:url(#SVGID_00000104670011059075233090000016215244336025804197_);" d="M242.086,132.414
				c0.189-1.138,0.116-2.306-0.184-3.448c-0.618-4.562-4.097-7.112-7.902-7.613c-1.48-0.281-3.083-0.148-4.727,0.42
				c-0.014,0-0.029,0.008-0.041,0.012c-0.278,0.102-0.558,0.174-0.84,0.287c-0.106,0.04-0.203,0.089-0.311,0.137
				c-30.559,14.827-61.12,29.659-91.683,44.49c-0.207,0.058-0.4,0.129-0.593,0.202c-0.61,0.247-1.192,0.548-1.735,0.928
				c-0.045,0.019-0.089,0.04-0.137,0.069c-4.833,2.347-5.559,6.861-3.939,10.645c0.537,2.025,1.773,3.928,4.02,5.343
				c7.365,4.674,14.731,9.337,22.102,14.017c-16.058,17.392-35.048,34.647-57.174,43.271c-6.452,2.518-13.172,4.293-20.178,5.132
				c-25.378,1.485-34.894-11.738-38.236-24.5c-0.035-0.129-0.064-0.266-0.1-0.399c-0.638-1.456-2.084-2.472-3.773-2.468
				c-1.634,0.004-3.015,0.968-3.678,2.343c-0.266,0.544-0.444,1.134-0.444,1.78c0,0.351,0.122,0.669,0.203,0.995
				c0.867,17.926,30.302,49.532,80.595,28.469c29.724-11.584,47.059-31.24,63.585-50.076c1.793-2.044,2.451-4.308,2.359-6.474
				c0.004-0.195,0-0.38-0.008-0.573c0-0.008,0-0.017-0.004-0.025c-0.062-2.779-1.321-5.546-4.323-7.449
				c-5.787-3.666-11.569-7.33-17.354-10.992c22.044-10.704,44.098-21.401,66.142-32.1c0.355,24.33,0.711,48.663,1.066,72.993
				c-3.838-2.642-7.673-5.284-11.507-7.931c-2.165-1.493-5.526-1.637-8.198-0.604c-1.207,0.471-2.222,1.234-3.027,2.121
				c-46.223,50.101-87.172,54.857-89.997,55.817c-0.154,0.06-0.315,0.096-0.462,0.17c-6.933,3.556-2.892,13.73,3.9,12.326
				c3.338-0.686,56.001-5.421,94.745-49.509c6.485,4.47,12.969,8.938,19.45,13.412c2.639,1.824,5.225,1.988,7.412,1.142
				c4.271-2.036,6.537-5.565,6.481-9.108C243.091,201.252,242.591,166.836,242.086,132.414z"/>
		</g>
	</g>
</g>
</svg>
